<mxfile host="app.diagrams.net" agent="Mozilla/5.0 (Macintosh; Intel Mac OS X 10_15_7) AppleWebKit/605.1.15 (KHTML, like Gecko) Version/18.3 Safari/605.1.15" version="26.0.11">
  <diagram name="Page-1" id="AGJyFUty4TOyKWpzbhff">
    <mxGraphModel dx="1789" dy="2434" grid="1" gridSize="10" guides="1" tooltips="1" connect="1" arrows="1" fold="1" page="1" pageScale="1" pageWidth="850" pageHeight="1100" math="0" shadow="0">
      <root>
        <mxCell id="0" />
        <mxCell id="1" parent="0" />
        <mxCell id="ghb1unPhH4rXBoYEDEKf-12" value="VPC" style="sketch=0;outlineConnect=0;gradientColor=none;html=1;whiteSpace=wrap;fontSize=12;fontStyle=0;shape=mxgraph.aws4.group;grIcon=mxgraph.aws4.group_vpc;strokeColor=#879196;fillColor=none;verticalAlign=top;align=left;spacingLeft=30;fontColor=#879196;dashed=0;" vertex="1" parent="1">
          <mxGeometry x="10" y="-50" width="730" height="490" as="geometry" />
        </mxCell>
        <mxCell id="ghb1unPhH4rXBoYEDEKf-1" value="Amazon ECS" style="sketch=0;outlineConnect=0;fontColor=#232F3E;gradientColor=none;strokeColor=#ffffff;fillColor=#232F3E;dashed=0;verticalLabelPosition=middle;verticalAlign=bottom;align=center;html=1;whiteSpace=wrap;fontSize=10;fontStyle=1;spacing=3;shape=mxgraph.aws4.productIcon;prIcon=mxgraph.aws4.ecs;" vertex="1" parent="1">
          <mxGeometry x="100" y="260" width="80" height="100" as="geometry" />
        </mxCell>
        <mxCell id="ghb1unPhH4rXBoYEDEKf-2" value="Amazon ECS" style="sketch=0;outlineConnect=0;fontColor=#232F3E;gradientColor=none;strokeColor=#ffffff;fillColor=#232F3E;dashed=0;verticalLabelPosition=middle;verticalAlign=bottom;align=center;html=1;whiteSpace=wrap;fontSize=10;fontStyle=1;spacing=3;shape=mxgraph.aws4.productIcon;prIcon=mxgraph.aws4.ecs;" vertex="1" parent="1">
          <mxGeometry x="240" y="260" width="80" height="100" as="geometry" />
        </mxCell>
        <mxCell id="ghb1unPhH4rXBoYEDEKf-3" value="Amazon ECS" style="sketch=0;outlineConnect=0;fontColor=#232F3E;gradientColor=none;strokeColor=#ffffff;fillColor=#232F3E;dashed=0;verticalLabelPosition=middle;verticalAlign=bottom;align=center;html=1;whiteSpace=wrap;fontSize=10;fontStyle=1;spacing=3;shape=mxgraph.aws4.productIcon;prIcon=mxgraph.aws4.ecs;" vertex="1" parent="1">
          <mxGeometry x="370" y="260" width="80" height="100" as="geometry" />
        </mxCell>
        <mxCell id="ghb1unPhH4rXBoYEDEKf-9" value="" style="edgeStyle=orthogonalEdgeStyle;rounded=0;orthogonalLoop=1;jettySize=auto;html=1;" edge="1" parent="1" source="ghb1unPhH4rXBoYEDEKf-5" target="ghb1unPhH4rXBoYEDEKf-6">
          <mxGeometry relative="1" as="geometry" />
        </mxCell>
        <mxCell id="ghb1unPhH4rXBoYEDEKf-5" value="" style="sketch=0;outlineConnect=0;fontColor=#232F3E;gradientColor=none;fillColor=#8C4FFF;strokeColor=none;dashed=0;verticalLabelPosition=bottom;verticalAlign=top;align=center;html=1;fontSize=12;fontStyle=0;aspect=fixed;pointerEvents=1;shape=mxgraph.aws4.application_load_balancer;" vertex="1" parent="1">
          <mxGeometry x="250" y="100" width="50" height="50" as="geometry" />
        </mxCell>
        <mxCell id="ghb1unPhH4rXBoYEDEKf-8" value="" style="edgeStyle=orthogonalEdgeStyle;rounded=0;orthogonalLoop=1;jettySize=auto;html=1;" edge="1" parent="1" source="ghb1unPhH4rXBoYEDEKf-6" target="ghb1unPhH4rXBoYEDEKf-7">
          <mxGeometry relative="1" as="geometry" />
        </mxCell>
        <mxCell id="ghb1unPhH4rXBoYEDEKf-6" value="Elastic Load Balancing" style="sketch=0;outlineConnect=0;gradientColor=none;html=1;whiteSpace=wrap;fontSize=12;fontStyle=0;shape=mxgraph.aws4.groupCenter;grIcon=mxgraph.aws4.group_elastic_load_balancing;grStroke=1;strokeColor=#007DBC;fillColor=none;verticalAlign=top;align=center;fontColor=#007DBC;dashed=0;spacingTop=25;" vertex="1" parent="1">
          <mxGeometry x="40" y="180" width="470" height="200" as="geometry" />
        </mxCell>
        <mxCell id="ghb1unPhH4rXBoYEDEKf-7" value="Amazon DocumentDB" style="sketch=0;points=[[0,0,0],[0.25,0,0],[0.5,0,0],[0.75,0,0],[1,0,0],[0,1,0],[0.25,1,0],[0.5,1,0],[0.75,1,0],[1,1,0],[0,0.25,0],[0,0.5,0],[0,0.75,0],[1,0.25,0],[1,0.5,0],[1,0.75,0]];outlineConnect=0;fontColor=#232F3E;fillColor=#C925D1;strokeColor=#ffffff;dashed=0;verticalLabelPosition=bottom;verticalAlign=top;align=center;html=1;fontSize=12;fontStyle=0;aspect=fixed;shape=mxgraph.aws4.resourceIcon;resIcon=mxgraph.aws4.documentdb_with_mongodb_compatibility;" vertex="1" parent="1">
          <mxGeometry x="610" y="241" width="78" height="78" as="geometry" />
        </mxCell>
        <mxCell id="ghb1unPhH4rXBoYEDEKf-11" style="edgeStyle=orthogonalEdgeStyle;rounded=0;orthogonalLoop=1;jettySize=auto;html=1;" edge="1" parent="1" source="ghb1unPhH4rXBoYEDEKf-10" target="ghb1unPhH4rXBoYEDEKf-5">
          <mxGeometry relative="1" as="geometry" />
        </mxCell>
        <mxCell id="ghb1unPhH4rXBoYEDEKf-10" value="Amazon EC2" style="sketch=0;outlineConnect=0;fontColor=#232F3E;gradientColor=none;strokeColor=#ffffff;fillColor=#232F3E;dashed=0;verticalLabelPosition=middle;verticalAlign=bottom;align=center;html=1;whiteSpace=wrap;fontSize=10;fontStyle=1;spacing=3;shape=mxgraph.aws4.productIcon;prIcon=mxgraph.aws4.ec2;" vertex="1" parent="1">
          <mxGeometry x="385" y="-20" width="80" height="100" as="geometry" />
        </mxCell>
        <mxCell id="ghb1unPhH4rXBoYEDEKf-15" style="edgeStyle=orthogonalEdgeStyle;rounded=0;orthogonalLoop=1;jettySize=auto;html=1;" edge="1" parent="1" source="ghb1unPhH4rXBoYEDEKf-13" target="ghb1unPhH4rXBoYEDEKf-10">
          <mxGeometry relative="1" as="geometry">
            <Array as="points">
              <mxPoint x="605" y="30" />
            </Array>
          </mxGeometry>
        </mxCell>
        <mxCell id="ghb1unPhH4rXBoYEDEKf-13" value="" style="sketch=0;outlineConnect=0;fontColor=#232F3E;gradientColor=none;fillColor=#8C4FFF;strokeColor=none;dashed=0;verticalLabelPosition=bottom;verticalAlign=top;align=center;html=1;fontSize=12;fontStyle=0;aspect=fixed;pointerEvents=1;shape=mxgraph.aws4.internet_gateway;" vertex="1" parent="1">
          <mxGeometry x="580" y="-70" width="50" height="50" as="geometry" />
        </mxCell>
        <mxCell id="ghb1unPhH4rXBoYEDEKf-16" value="Application Load Balancer" style="text;html=1;align=center;verticalAlign=middle;whiteSpace=wrap;rounded=0;" vertex="1" parent="1">
          <mxGeometry x="300" y="120" width="80" height="30" as="geometry" />
        </mxCell>
        <mxCell id="ghb1unPhH4rXBoYEDEKf-17" value="Backend Workers" style="text;html=1;align=center;verticalAlign=middle;whiteSpace=wrap;rounded=0;" vertex="1" parent="1">
          <mxGeometry x="50" y="190" width="60" height="30" as="geometry" />
        </mxCell>
        <mxCell id="ghb1unPhH4rXBoYEDEKf-18" value="Frontend" style="text;html=1;align=center;verticalAlign=middle;whiteSpace=wrap;rounded=0;" vertex="1" parent="1">
          <mxGeometry x="395" y="-50" width="60" height="30" as="geometry" />
        </mxCell>
        <mxCell id="ghb1unPhH4rXBoYEDEKf-19" value="End Users" style="shape=umlActor;verticalLabelPosition=bottom;verticalAlign=top;html=1;outlineConnect=0;" vertex="1" parent="1">
          <mxGeometry x="650" y="-140" width="30" height="60" as="geometry" />
        </mxCell>
      </root>
    </mxGraphModel>
  </diagram>
</mxfile>
